<?xml version="1.0" standalone="no"?>
<!DOCTYPE svg PUBLIC "-//W3C//DTD SVG 20010904//EN"
 "http://www.w3.org/TR/2001/REC-SVG-20010904/DTD/svg10.dtd">
<svg version="1.0" xmlns="http://www.w3.org/2000/svg"
 width="512.000000pt" height="512.000000pt" viewBox="0 0 512.000000 512.000000"
 preserveAspectRatio="xMidYMid meet">
<metadata>
Created by potrace 1.14, written by Peter Selinger 2001-2017
</metadata>
<g transform="translate(0.000000,512.000000) scale(0.100000,-0.100000)"
fill="#000000" stroke="none">
<path d="M1897 4474 c-3 -4 -30 -8 -59 -10 -67 -4 -103 -10 -120 -20 -7 -5
-20 -9 -28 -11 -8 -1 -48 -19 -90 -39 -77 -39 -197 -145 -185 -164 3 -6 1 -10
-4 -10 -6 0 -10 -3 -10 -7 1 -5 0 -10 -1 -13 -7 -19 -7 -41 1 -46 5 -3 -10
-26 -34 -51 -23 -24 -42 -48 -42 -51 0 -4 -4 -13 -8 -19 -5 -7 -5 -13 0 -13 4
0 2 -4 -5 -8 -13 -9 -22 -138 -11 -157 7 -12 21 -68 19 -74 -1 -2 2 -7 7 -10
13 -8 43 -71 43 -88 0 -7 5 -13 11 -13 6 0 9 -7 5 -15 -3 -8 -1 -15 5 -15 6 0
8 -4 5 -9 -4 -5 -1 -11 4 -13 6 -2 12 -13 13 -26 0 -12 4 -22 7 -22 4 0 7 -6
7 -12 1 -23 12 -68 19 -79 5 -8 3 -9 -6 -4 -8 5 -11 4 -7 -2 3 -5 9 -25 12
-44 3 -19 13 -44 21 -56 8 -13 12 -23 9 -23 -2 0 15 -18 39 -40 24 -22 49 -40
55 -40 7 0 10 -4 7 -8 -3 -5 8 -16 25 -26 26 -15 31 -22 28 -42 0 -3 7 -11 16
-17 15 -12 28 -55 27 -89 0 -10 3 -18 8 -18 5 0 7 -9 5 -19 -2 -11 2 -27 9
-36 21 -29 8 -65 -25 -72 -16 -3 -29 -9 -29 -13 0 -10 -82 -2 -90 8 -3 4 -16
9 -30 11 -32 4 -55 9 -55 11 0 2 -67 12 -87 13 -10 1 -18 4 -18 7 0 3 -10 6
-22 6 -25 2 -83 12 -83 14 0 3 -41 11 -62 12 -13 0 -23 5 -23 11 0 6 -3 7 -7
4 -9 -10 -33 13 -33 32 0 19 -28 46 -59 56 -12 3 -21 11 -21 16 0 5 -3 8 -7 7
-5 -2 -25 8 -47 21 -39 25 -54 20 -57 -19 0 -10 -2 -11 -6 -2 -2 6 -10 9 -15
5 -7 -4 -9 2 -6 15 4 14 2 20 -5 15 -6 -4 -8 0 -4 10 9 24 -34 23 -55 -2 -23
-27 -41 -88 -34 -117 4 -14 2 -24 -4 -24 -7 0 -8 -6 -1 -19 6 -10 7 -21 4 -25
-3 -3 -1 -6 5 -6 7 0 12 -4 12 -10 0 -15 35 -47 59 -55 12 -3 21 -11 21 -17 0
-6 3 -9 6 -6 3 4 22 -1 42 -9 20 -8 38 -15 40 -14 1 0 3 1 5 0 1 0 11 -2 22
-4 11 -2 35 -7 53 -10 18 -3 30 -10 27 -15 -10 -17 7 -42 26 -37 11 3 19 2 19
-2 0 -4 8 -7 18 -8 32 -1 95 -15 121 -25 14 -6 34 -10 44 -9 9 1 17 -2 17 -8
0 -5 9 -8 20 -6 11 2 20 1 20 -3 0 -4 10 -8 23 -8 32 -3 71 -10 82 -15 6 -3
20 -4 33 -3 12 0 22 -2 22 -7 0 -4 28 -6 63 -4 70 4 167 24 167 35 0 4 11 6
25 5 14 -2 25 1 25 7 0 6 8 8 18 6 10 -3 24 2 31 9 11 13 15 13 22 1 5 -7 9
-9 9 -4 0 6 6 2 13 -6 11 -15 15 -14 38 12 14 16 24 31 22 34 -4 4 24 1 37 -4
3 -1 8 -2 13 -1 4 0 7 -4 7 -9 0 -6 6 -10 13 -9 33 4 57 -2 57 -16 0 -8 4 -15
9 -15 5 0 11 -8 14 -17 4 -10 18 -38 33 -63 15 -25 40 -69 55 -98 24 -45 26
-53 11 -50 -9 1 -22 -1 -29 -5 -6 -4 -14 -3 -18 3 -9 15 -48 -26 -51 -55 -1
-14 2 -25 7 -25 6 0 8 -4 5 -9 -4 -5 0 -11 6 -14 7 -2 -1 -6 -19 -9 -18 -2
-30 -1 -27 3 2 4 -5 5 -16 2 -11 -3 -20 -10 -20 -15 0 -5 -4 -7 -9 -4 -5 3
-16 -5 -25 -19 -9 -14 -14 -25 -11 -25 2 0 0 -11 -5 -25 -6 -17 -6 -25 1 -25
6 0 8 -4 4 -10 -9 -15 57 -76 98 -89 20 -7 37 -17 37 -22 0 -6 -4 -8 -9 -4
-14 8 -68 -48 -65 -68 1 -9 -2 -17 -7 -17 -11 0 -7 -23 6 -32 6 -5 6 -8 -2 -8
-29 0 49 -98 84 -105 10 -2 24 -4 31 -4 10 -1 10 -4 0 -15 -7 -8 -21 -12 -30
-10 -10 1 -18 -1 -18 -7 0 -5 -3 -8 -7 -8 -5 1 -11 0 -15 -1 -5 -1 -11 -3 -15
-4 -29 -7 -83 -31 -83 -38 0 -4 -3 -7 -7 -6 -11 4 -118 -59 -133 -77 -7 -8
-18 -15 -24 -15 -6 0 -18 -9 -26 -21 -16 -22 -58 -50 -46 -30 4 6 2 11 -4 11
-6 0 -9 4 -6 9 3 5 -1 12 -10 15 -9 4 -14 9 -11 12 6 6 -34 55 -67 83 -10 9
-27 24 -36 35 -10 10 -23 15 -28 12 -6 -3 -13 1 -16 10 -4 9 -9 14 -13 11 -3
-4 -12 -2 -18 3 -17 14 -111 18 -155 7 -19 -4 -41 -9 -47 -9 -7 -1 -13 -5 -13
-10 0 -5 -4 -6 -10 -3 -5 3 -10 2 -10 -3 0 -8 -26 -19 -47 -22 -6 0 -43 -41
-44 -47 -1 -5 -12 -18 -26 -31 -13 -12 -21 -27 -18 -32 3 -6 1 -10 -6 -10 -7
0 -9 -3 -6 -7 4 -3 2 -12 -3 -19 -6 -6 -12 -33 -13 -58 -1 -25 -5 -46 -8 -46
-9 0 -7 -34 4 -47 6 -9 6 -13 -2 -13 -6 0 -9 -13 -7 -30 2 -16 -1 -30 -6 -30
-5 0 -7 -3 -4 -8 6 -11 -18 -63 -43 -92 -29 -32 -104 -37 -132 -9 -11 11 -24
17 -29 14 -6 -4 -10 -2 -10 4 0 14 -25 8 -52 -13 -21 -15 -28 -49 -18 -76 1
-3 2 -8 1 -12 0 -5 3 -8 8 -8 5 0 11 -7 14 -15 5 -11 1 -12 -18 -5 -14 5 -32
7 -40 4 -8 -4 -15 -1 -15 5 0 7 -8 8 -23 2 -13 -5 -29 -6 -36 -1 -24 14 -100
-41 -109 -79 -8 -34 -8 -111 -1 -111 5 0 6 -6 3 -14 -3 -8 0 -17 5 -21 6 -3 9
-11 6 -16 -4 -5 -1 -9 4 -9 6 0 11 -5 11 -11 0 -15 53 -89 64 -89 5 0 16 -8
25 -18 9 -10 31 -25 49 -33 17 -7 32 -21 32 -29 0 -13 1 -13 10 0 6 9 10 11
10 3 0 -7 7 -10 18 -6 9 3 14 2 9 -2 -4 -5 -33 -10 -64 -12 -46 -2 -60 -8 -84
-32 -15 -16 -29 -27 -32 -25 -2 3 -3 -21 -1 -52 1 -33 8 -60 16 -65 7 -5 9 -9
4 -9 -6 0 0 -9 12 -20 12 -11 27 -20 33 -20 7 0 9 -3 6 -7 -17 -16 116 -61
176 -59 20 1 38 -3 38 -9 1 -5 2 -27 2 -47 0 -21 4 -38 9 -38 5 0 7 -4 4 -9
-8 -12 28 -51 48 -51 9 0 16 -4 16 -10 0 -5 16 -10 36 -10 43 0 114 20 114 32
0 4 6 8 14 8 8 0 32 17 53 37 21 21 42 37 46 35 5 -1 6 2 3 7 -4 5 1 17 10 25
8 9 12 16 8 16 -4 0 0 8 9 18 30 33 65 136 72 212 2 19 4 35 5 35 7 0 5 174
-2 193 -4 13 -4 22 2 22 6 0 6 9 1 23 -18 52 12 207 41 207 5 0 6 5 3 10 -6 9
8 14 28 11 4 0 7 3 7 8 0 5 11 9 25 9 23 0 30 -9 26 -30 0 -5 4 -8 10 -8 8 0
8 -5 -1 -15 -10 -12 -10 -15 0 -15 9 0 9 -4 2 -13 -7 -8 -7 -18 -2 -27 5 -8 5
-21 -1 -31 -5 -10 -6 -20 -1 -23 4 -2 8 -31 10 -63 1 -32 7 -59 12 -61 6 -2 6
-11 0 -23 -6 -11 -7 -19 -1 -19 5 0 12 -7 15 -16 3 -8 2 -12 -4 -9 -6 3 -10 1
-10 -4 0 -6 5 -11 11 -11 5 0 8 -4 4 -9 -3 -5 -1 -12 5 -16 6 -4 8 -11 4 -16
-3 -5 -1 -15 4 -22 5 -7 8 -20 7 -29 -2 -10 1 -20 6 -24 5 -3 9 -16 9 -29 0
-13 5 -27 10 -30 6 -4 8 -11 5 -16 -4 -5 -2 -9 4 -9 5 0 8 -8 7 -17 -2 -10 1
-21 6 -24 5 -3 10 -15 13 -27 2 -11 8 -29 14 -40 6 -11 7 -22 4 -26 -3 -3 -2
-6 3 -6 6 0 16 -17 23 -37 15 -40 21 -49 66 -96 17 -17 28 -34 25 -37 -36 -43
-64 -68 -71 -64 -5 3 -9 1 -9 -4 0 -9 -53 -35 -75 -36 -16 -1 -45 -34 -45 -51
0 -8 -4 -15 -9 -15 -12 0 -6 -73 7 -78 6 -2 8 -11 5 -20 -3 -9 -3 -14 2 -10 4
4 13 0 20 -8 16 -23 81 -28 126 -10 20 8 40 12 44 8 5 -4 5 -2 2 4 -6 11 9 23
25 20 4 0 14 8 22 19 9 11 16 16 16 10 0 -5 7 1 16 13 8 12 21 22 27 22 7 0
21 14 30 30 10 17 23 30 28 30 6 0 7 4 4 10 -3 5 -1 10 5 10 6 0 8 5 4 12 -5
8 -2 9 12 4 24 -10 71 -18 107 -20 15 0 27 -4 27 -7 0 -4 14 -5 30 -4 17 1 30
-2 30 -7 0 -5 6 -6 13 -2 14 9 -10 -23 -35 -47 -12 -11 -18 -31 -18 -63 0 -39
5 -52 33 -79 22 -22 42 -32 65 -33 17 0 32 3 32 8 0 5 4 7 9 3 5 -3 21 6 34
19 14 14 28 22 31 19 3 -4 6 3 6 15 0 12 3 22 8 22 6 0 44 70 48 89 12 50 26
60 88 67 17 1 58 6 91 9 33 4 74 8 90 10 17 1 30 4 30 5 0 2 22 6 75 13 25 4
59 9 75 13 17 4 38 6 48 6 9 0 17 3 17 7 0 5 11 7 25 6 14 -2 25 0 25 4 0 4
10 8 23 9 37 4 86 16 182 45 39 12 73 20 78 19 4 -1 7 3 7 8 0 5 3 9 8 9 4 -1
10 0 15 1 4 1 12 4 17 5 6 1 12 4 15 5 3 1 8 3 13 4 4 1 16 7 27 13 11 6 22
11 25 10 3 0 28 10 55 23 28 13 53 24 58 25 4 2 10 4 15 5 4 1 10 2 15 1 4 0
7 3 7 7 0 5 19 17 43 28 23 10 44 21 47 25 3 3 20 12 38 20 17 8 32 17 32 21
0 5 6 8 13 8 7 0 23 9 35 20 12 11 24 20 27 20 10 0 99 66 138 103 22 20 45
37 50 37 6 0 7 3 4 7 -4 3 1 12 10 18 31 23 95 -20 109 -72 3 -13 10 -23 16
-23 5 0 8 -6 7 -12 -4 -31 3 -48 22 -59 16 -8 20 -8 14 1 -6 9 -3 9 14 1 11
-6 31 -9 43 -7 13 3 34 7 48 10 14 3 31 13 38 23 6 9 12 13 13 7 0 -5 4 1 9
13 5 12 6 36 3 55 -2 18 -5 41 -5 51 1 9 -3 17 -9 17 -5 0 -9 8 -9 17 0 31
-61 117 -103 147 l-42 29 28 8 c16 4 35 13 42 19 13 11 60 23 98 24 9 0 17 4
17 8 0 4 10 4 23 -1 25 -10 31 -11 50 -11 7 0 23 -9 34 -19 12 -11 24 -17 27
-14 3 4 6 -1 6 -9 0 -43 80 -16 118 40 21 31 30 102 12 102 -6 0 -8 5 -5 10 3
6 2 10 -3 10 -5 0 -15 11 -22 25 -7 13 -17 22 -21 20 -4 -3 -10 4 -14 15 -3
11 -15 20 -25 20 -10 0 -20 7 -24 15 -3 8 -9 15 -13 14 -4 -1 -10 0 -13 1 -12
4 -46 11 -60 12 -8 0 -21 6 -29 12 -10 8 -13 8 -8 0 4 -7 -7 -11 -30 -12 -19
-1 -40 -5 -47 -10 -6 -4 -18 -8 -26 -7 -8 0 -19 -5 -25 -12 -8 -9 -13 -9 -23
3 -8 9 -9 14 -2 14 7 0 9 12 6 30 -2 16 -1 32 3 35 9 5 8 36 -2 51 -3 6 -4 14
0 18 9 9 13 56 4 56 -4 0 -7 12 -8 27 -3 69 -7 92 -14 87 -5 -3 -6 1 -4 8 5
13 91 45 108 40 5 -1 6 2 2 8 -6 9 7 14 28 11 4 0 7 4 7 10 0 5 4 8 9 4 6 -3
14 3 20 12 6 10 11 14 11 9 0 -22 90 88 103 128 16 46 14 98 -4 104 -5 2 -9
10 -9 18 0 9 -4 13 -9 9 -5 -3 -12 -1 -15 3 -3 5 -18 8 -33 8 -15 -1 -36 2
-45 6 -9 5 -19 4 -23 -2 -4 -6 -15 -6 -31 0 -14 6 -41 10 -60 10 -27 0 -35 4
-32 16 2 11 17 17 48 20 42 3 82 10 88 14 1 2 7 4 12 5 6 1 12 4 15 5 3 1 8 3
13 5 30 8 62 26 62 35 0 6 4 9 9 5 5 -3 16 4 24 15 7 11 17 17 20 13 4 -3 7
-1 7 5 0 7 8 21 18 32 9 11 18 25 18 30 1 6 2 11 4 13 7 7 5 107 -2 107 -5 0
-8 6 -7 13 6 30 -61 127 -87 127 -7 0 -14 4 -16 9 -1 6 -15 12 -30 15 -15 2
-33 8 -39 11 -13 8 -149 12 -149 5 0 -3 -20 -4 -44 -2 -34 3 -49 10 -60 27
-19 28 -73 57 -82 44 -4 -6 -10 -6 -18 0 -9 7 -16 7 -24 -1 -9 -9 -12 -9 -12
1 0 10 -3 11 -14 2 -11 -9 -24 -7 -60 10 -26 12 -48 24 -50 28 -4 5 28 95 56
161 6 14 12 30 13 35 2 6 11 28 20 50 10 22 19 45 20 50 2 6 7 21 13 35 5 14
10 28 11 33 0 4 7 20 15 36 9 16 12 31 9 35 -4 3 -1 6 5 6 7 0 11 3 10 8 -1 4
3 17 10 30 7 12 10 22 6 22 -3 0 -1 6 5 13 6 8 8 17 4 20 -3 4 -1 7 6 7 7 0
10 4 6 9 -3 5 0 13 6 16 5 4 8 13 5 21 -3 8 -2 14 3 14 4 0 8 8 9 18 2 29 -9
82 -16 80 -4 -1 -18 2 -30 6 -20 7 -30 1 -63 -34 -22 -23 -37 -46 -33 -51 3
-5 1 -9 -4 -9 -10 0 -74 -92 -85 -122 -3 -10 -10 -18 -14 -18 -5 0 -19 -20
-33 -45 -14 -25 -28 -45 -32 -45 -5 0 -8 -7 -8 -15 0 -8 -4 -15 -10 -15 -5 0
-10 -7 -10 -15 0 -8 -4 -15 -10 -15 -5 0 -10 -6 -10 -13 0 -8 -9 -22 -20 -32
-11 -10 -20 -24 -20 -32 0 -7 -4 -13 -10 -13 -5 0 -10 -7 -10 -15 0 -7 -7 -18
-16 -23 -9 -5 -15 -13 -14 -18 0 -5 -6 -11 -16 -12 -9 -2 -14 1 -10 6 8 14
-13 61 -39 89 -24 25 -70 45 -80 35 -4 -4 -10 -7 -13 -7 -18 -1 -52 -27 -52
-40 0 -17 -12 -19 -26 -5 -6 6 -19 12 -30 15 -10 2 -36 9 -56 14 -20 5 -39 6
-42 3 -3 -2 -13 1 -23 9 -15 12 -16 12 -8 -1 8 -13 7 -13 -8 -1 -9 7 -17 9
-17 3 0 -5 -10 -10 -22 -11 -44 -2 -73 -7 -83 -12 -5 -3 -30 -12 -54 -19 -24
-8 -45 -20 -48 -27 -3 -7 -8 -11 -13 -8 -4 2 -28 -16 -54 -40 -26 -24 -49 -43
-51 -42 -2 1 -15 -12 -28 -30 -18 -25 -26 -30 -35 -21 -7 7 -12 20 -12 29 0
10 -5 21 -10 24 -6 4 -8 11 -5 16 4 5 2 9 -3 9 -4 0 -8 27 -6 60 1 33 -3 60
-8 60 -5 0 -7 4 -3 10 3 5 -10 27 -30 48 -19 22 -35 45 -35 51 0 6 -5 11 -11
11 -5 0 -7 5 -4 10 4 6 2 16 -3 23 -14 18 -11 47 5 47 7 0 13 5 13 10 0 6 6
10 13 10 8 0 24 11 36 24 13 14 36 30 52 37 16 6 27 14 25 17 -3 2 12 16 34
31 21 14 59 43 84 64 25 21 46 37 48 35 9 -8 89 96 108 140 5 12 14 22 20 22
5 0 10 3 9 8 -2 13 13 52 20 52 4 0 13 16 20 35 7 19 17 35 22 35 5 0 9 6 9
13 0 21 61 136 88 165 14 16 16 52 2 52 -18 0 -10 18 21 49 17 17 28 31 25 31
-3 0 8 14 25 32 16 18 28 37 27 43 -1 5 3 20 10 33 7 12 10 27 7 32 -3 6 -2
10 3 10 9 0 9 24 1 60 -2 8 -14 24 -26 35 -13 11 -23 25 -23 30 0 13 -58 48
-92 56 -16 4 -28 2 -28 -3 0 -5 -4 -6 -10 -3 -14 8 -13 -38 1 -52 20 -20 0
-36 -25 -19 -20 12 -24 12 -33 -2 -5 -10 -9 -25 -7 -34 1 -10 -2 -18 -7 -18
-4 0 -6 -7 -3 -15 4 -8 2 -15 -3 -15 -5 0 -14 -15 -21 -33 -14 -38 -16 -87 -4
-87 4 0 9 -11 10 -24 1 -17 -5 -27 -18 -31 -11 -4 -20 -12 -20 -19 0 -7 -16
-40 -36 -74 -20 -33 -35 -64 -34 -67 1 -4 -9 -15 -21 -26 -12 -10 -19 -19 -15
-19 4 0 -7 -21 -25 -47 -18 -25 -26 -43 -18 -39 8 4 6 1 -3 -7 -10 -8 -18 -19
-18 -26 0 -6 -4 -11 -10 -11 -5 0 -9 -3 -8 -7 4 -18 -32 -83 -47 -83 -9 0 -25
-9 -37 -20 -12 -10 -25 -17 -30 -14 -4 3 -8 0 -8 -6 0 -6 -4 -9 -9 -6 -5 3
-12 -1 -15 -10 -3 -8 -10 -13 -15 -10 -5 3 -12 -1 -15 -10 -3 -8 -10 -13 -15
-10 -5 3 -14 -1 -20 -8 -10 -12 -16 -12 -39 0 -15 8 -31 14 -37 14 -17 0 -52
44 -71 86 -9 21 -29 64 -43 94 -14 30 -27 58 -29 62 -2 3 6 4 17 1 12 -3 21
-9 21 -13 0 -11 92 -5 123 8 16 7 32 12 36 12 4 0 8 7 8 15 0 9 -6 14 -14 11
-7 -3 -13 -2 -13 3 0 4 -7 8 -15 9 -8 1 -22 3 -30 4 -8 1 -15 6 -15 11 0 6 -3
8 -6 4 -7 -6 -51 42 -52 57 0 5 -6 12 -12 16 -7 4 -12 24 -13 44 -1 20 -3 36
-7 36 -3 0 -6 23 -7 51 -1 29 -7 66 -14 83 -16 40 -95 117 -128 124 -20 4 -61
34 -61 44 0 5 -4 7 -9 4 -10 -6 -31 45 -31 75 0 11 -4 19 -8 19 -5 0 -15 11
-22 25 -7 13 -16 22 -21 20 -4 -3 -9 -1 -11 4 -1 6 -31 11 -65 12 -35 1 -63 6
-63 11 0 4 -9 8 -19 8 -11 0 -21 3 -23 8 -5 11 -66 52 -78 52 -5 0 -10 4 -10
9 0 8 -48 23 -80 25 -8 0 -18 4 -21 8 -3 5 -8 5 -12 2z"/>
</g>
</svg>
